<?xml version="1.0" encoding="utf-8"?>
<!-- Generator: Adobe Illustrator 22.0.1, SVG Export Plug-In . SVG Version: 6.00 Build 0)  -->
<svg version="1.1" id="Layer_1" xmlns="http://www.w3.org/2000/svg" xmlns:xlink="http://www.w3.org/1999/xlink" x="0px" y="0px"
	 viewBox="0 0 24 24" style="enable-background:new 0 0 24 24;" xml:space="preserve">
<style type="text/css">
	.st0{fill:#FFFFFF;stroke:#000000;stroke-miterlimit:10;}
	.st1{fill:#C25229;}
	.st2{fill:#CF633A;}
	.st3{fill:#AB4E1F;}
	.st4{fill:#F77C3F;}
	.st5{fill:#984520;}
	.st6{fill:#B45E41;}
	.st7{fill:#DA602D;}
	.st8{fill-rule:evenodd;clip-rule:evenodd;fill:#231F20;}
</style>
<g>
	<g>
		<g>
			<polygon class="st0" points="12,11.7 12.2,11.7 12.1,11.6 			"/>
			<polygon class="st1" points="12.2,11.7 23.9,11.7 24,11.6 18,1.3 12.1,11.6 			"/>
			<polygon class="st2" points="18,1.3 18,1.2 6.1,1.2 12.1,11.6 			"/>
			<polygon class="st3" points="12,11.7 6.1,22 18,22 18.1,21.8 12.2,11.7 			"/>
			<polygon class="st4" points="12.1,11.6 6.1,1.2 6,1.2 0,11.6 0.1,11.7 12,11.7 			"/>
			<polygon class="st5" points="12.2,11.7 18.1,21.8 23.9,11.7 			"/>
			<polygon class="st6" points="0.1,11.7 6,22 6.1,22 12,11.7 			"/>
		</g>
		<polygon class="st7" points="7.8,18.9 3.6,11.6 7.8,4.3 16.2,4.3 20.4,11.6 16.2,18.9 		"/>
	</g>
</g>
<polygon class="st8" points="7.6,16 12.6,12.1 11.6,11.1 10.7,10.2 6.7,15.2 7.6,16 "/>
<path class="st8" d="M12,7.2c-0.4,0.5-0.6,1.2-0.5,1.9l2.3,2.3c0.7,0.1,1.3-0.1,1.9-0.5L12,7.2L12,7.2z"/>
<path class="st8" d="M16.5,10.1c0.6-1,0.5-2.4-0.4-3.3c-0.9-0.9-2.2-1-3.3-0.4L16.5,10.1L16.5,10.1z"/>
</svg>
