<?xml version="1.0" encoding="utf-8"?>
<!-- Generator: Adobe Illustrator 22.0.1, SVG Export Plug-In . SVG Version: 6.00 Build 0)  -->
<svg version="1.1" id="Layer_1" xmlns="http://www.w3.org/2000/svg" xmlns:xlink="http://www.w3.org/1999/xlink" x="0px" y="0px"
	 viewBox="0 0 24 24" style="enable-background:new 0 0 24 24;" xml:space="preserve">
<style type="text/css">
	.st0{fill:#FFFFFF;stroke:#000000;stroke-miterlimit:10;}
	.st1{fill:#C25229;}
	.st2{fill:#CF633A;}
	.st3{fill:#AB4E1F;}
	.st4{fill:#F77C3F;}
	.st5{fill:#984520;}
	.st6{fill:#B45E41;}
	.st7{fill:#DA602D;}
	.st8{fill-rule:evenodd;clip-rule:evenodd;fill:#231F20;}
</style>
<g>
	<g>
		<g>
			<polygon class="st0" points="12,11.7 12.2,11.7 12.1,11.6 			"/>
			<polygon class="st1" points="12.2,11.7 23.9,11.7 24,11.6 18,1.3 12.1,11.6 			"/>
			<polygon class="st2" points="18,1.3 18,1.2 6.1,1.2 12.1,11.6 			"/>
			<polygon class="st3" points="12,11.7 6.1,22 18,22 18.1,21.8 12.2,11.7 			"/>
			<polygon class="st4" points="12.1,11.6 6.1,1.2 6,1.2 0,11.6 0.1,11.7 12,11.7 			"/>
			<polygon class="st5" points="12.2,11.7 18.1,21.8 23.9,11.7 			"/>
			<polygon class="st6" points="0.1,11.7 6,22 6.1,22 12,11.7 			"/>
		</g>
		<polygon class="st7" points="7.8,18.9 3.6,11.6 7.8,4.3 16.2,4.3 20.4,11.6 16.2,18.9 		"/>
	</g>
</g>
<path class="st8" d="M15.1,11.7c0,0,0-0.1,0-0.1c0-1,0-2.3,0-3.3c0-0.3-0.1-0.4-0.5-0.3c-1.3,0.4-2.6,0.8-3.9,1.2
	c-0.2,0.1-0.4,0.2-0.5,0.4c0,0.1,0,0.2,0,0.3c0,1.3,0,2.8,0,4.1c0,0.8-0.4,1.4-1.1,1.8c-0.6,0.3-1.2,0.4-1.8,0.2
	c-0.5-0.2-0.8-0.5-0.9-1c-0.1-0.4,0-0.7,0.2-1c0.4-0.6,0.9-0.9,1.6-1c0.3-0.1,0.7-0.1,1,0c0.1,0,0.1,0,0.2,0.1c0-0.1,0-0.1,0-0.1
	c0-1.5,0-2.5,0-4c0-0.6,0.4-1.2,1-1.4c1.5-0.5,3-0.9,4.5-1.4C15,6,15.2,6,15.4,6c0.3,0.1,0.5,0.3,0.5,0.6c0,0.1,0,0.2,0,0.3
	c0,2.1,0,3.7,0,5.8c0,0.7-0.3,1.2-0.8,1.6c-0.7,0.5-1.4,0.6-2.2,0.3c-0.4-0.1-0.7-0.4-0.9-0.9c-0.1-0.4,0-0.8,0.2-1.1
	c0.4-0.5,0.9-0.9,1.5-1C14.3,11.5,14.5,11.6,15.1,11.7L15.1,11.7z"/>
</svg>
